# xmcd
#
# Track frame offsets: 
#        150
#        22932
#        50907
#        74762
#        101375
#        131235
#        164250
#
# Disc length: 2566 seconds
#
# Revision: 6
# Processed by: cddbd v1.5.2PL0 Copyright (c) Steve Scherf et al.
# Submitted via: ExactAudioCopy v1.3
#
DISCID=620a0407
DTITLE=朱哲琴 Dadawa - 七日谈 Seven Days [XRCD2]
DYEAR=2006
DGENRE=New Age
TTITLE0=不翼而飛 Flown Away
TTITLE1=迦南香婆羅樹 Fragrant Nirvana Tree
TTITLE2=夕陽西下 In the Setting of the Sun
TTITLE3=了歌 Already Song
TTITLE4=三托曆 Satori
TTITLE5=路過地球 Passing By the Earth
TTITLE6=第七天 The Seventh Day
EXTD=2006 Dadawa Group Limited
EXTT0=
EXTT1=
EXTT2=
EXTT3=
EXTT4=
EXTT5=
EXTT6=
PLAYORDER=
